PathFileType	4	(X/Y/Z)	C:/Users/opensim2020/Desktop/walking_exp_matlab/subject02_walking17_run.trc																																																																																																																																																							
DataRate	CameraRate	NumFrames	NumMarkers	Units	OrigDataRate	OrigDataStartFrame	OrigNumFrames																																																																																																																																																			
100	100	4	51	mm	100	315	112																																																																																																																																																			
Frame#	Time	LSHO			RELB			LANK			LTOE			LUPA			RUPA			RWRB			LKNE			RSHO			RFIN			RFRM			RASI			LTHI			LWRB			RTHI			LASI			LFHD			RKNE			LELB			LTIB			RWRA			STRN			RTIB			RFHD			RANK			RBHD			RTOE			RHEE			C7			LHEE			LFRM			CLAV			LWRA			LBHD			RBAK			LFIN			T10			LPSI			RPSI			*39			*40			*41			*42			*43			*44			*45			*46			*47			*48			*49			*50		
		X1	Y1	Z1	X2	Y2	Z2	X3	Y3	Z3	X4	Y4	Z4	X5	Y5	Z5	X6	Y6	Z6	X7	Y7	Z7	X8	Y8	Z8	X9	Y9	Z9	X10	Y10	Z10	X11	Y11	Z11	X12	Y12	Z12	X13	Y13	Z13	X14	Y14	Z14	X15	Y15	Z15	X16	Y16	Z16	X17	Y17	Z17	X18	Y18	Z18	X19	Y19	Z19	X20	Y20	Z20	X21	Y21	Z21	X22	Y22	Z22	X23	Y23	Z23	X24	Y24	Z24	X25	Y25	Z25	X26	Y26	Z26	X27	Y27	Z27	X28	Y28	Z28	X29	Y29	Z29	X30	Y30	Z30	X31	Y31	Z31	X32	Y32	Z32	X33	Y33	Z33	X34	Y34	Z34	X35	Y35	Z35	X36	Y36	Z36	X37	Y37	Z37	X38	Y38	Z38	X39	Y39	Z39	X40	Y40	Z40	X41	Y41	Z41	X42	Y42	Z42	X43	Y43	Z43	X44	Y44	Z44	X45	Y45	Z45	X46	Y46	Z46	X47	Y47	Z47	X48	Y48	Z48	X49	Y49	Z49	X50	Y50	Z50	X51	Y51	Z51
																																																																																																																																																										
85	0.84	1271.96265	1436.28137	-189.17557	1209.14343	1194.94006	355.82669	1309.52148	83.77232	-37.51391	1460.65649	40.71355	-45.9967	1228.7688	1254.64185	-277.47351	1209.78931	1326.11084	289.04434	1384.90454	1023.82965	289.63812	1438.54492	472.77347	-83.45364	1279.91833	1468.90503	173.1398	1440.06689	1033.5564	252.49196	1300.51599	1109.96521	323.38895	1364.7384	915.55518	139.50801	1391.18152	653.86694	-138.88263	1460.37402	1177.77368	-178.1347	1304.74792	636.30859	244.94728	1360.54944	935.06311	-117.61826	1378.99902	1708.0813	-66.95403	1288.92969	440.19009	236.69511	1247.50378	1123.87549	-310.4046	1355.91064	298.36923	-80.38885	1380.255	1056.86792	242.68158	1387.22595	1237.1853	3.18238	1113.72266	402.56778	226.47287	1365.43176	1689.1001	76.07976	935.73303	346.44153	178.41982	1230.29224	1601.51611	50.02732	945.7066	195.66495	221.31526	878.45123	340.68958	113.40198	1209.25647	1489.34875	-16.47636	1265.84888	60.5835	12.61272	1366.3136	1136.14783	-244.4211	1344.65735	1411.1051	-18.99965	1430.27502	1224.96204	-165.64908	1256.50403	1622.80359	-89.61176	1137.80286	1323.39319	60.6988	1503.59521	1219.80334	-140.89333	1136.52466	1219.22449	16.05835	1150.87915	993.16455	-15.85214	1152.64014	997.43341	96.8777	2845.96899	1034.4989	-3357.34839	NaN	NaN	NaN	NaN	NaN	NaN	NaN	NaN	NaN	NaN	NaN	NaN	NaN	NaN	NaN	1263.20862	1764.65308	11.09283	NaN	NaN	NaN	NaN	NaN	NaN	NaN	NaN	NaN	NaN	NaN	NaN	NaN	NaN	NaN
86	0.85	1312.25659	1439.47339	-188.68806	1231.53711	1200.35217	353.97427	1310.08179	85.71467	-35.33216	1460.46387	40.55016	-45.98026	1274.26746	1254.72583	-274.33267	1238.552	1329.56958	284.6098	1402.1123	1017.52155	301.82123	1458.19971	465.94687	-83.424	1315.2124	1472.14197	170.30222	1459.63452	1021.73584	266.59924	1320.39954	1108.96924	328.95654	1401.80725	922.06097	138.33543	1427.5426	656.09241	-139.17386	1505.53235	1194.88879	-167.92117	1357.40356	638.15112	241.20105	1392.4231	938.10748	-121.09973	1416.32581	1709.49768	-66.90473	1356.42297	443.00339	230.41919	1299.00024	1122.94189	-303.48953	1369.88367	295.23398	-80.02268	1401.78345	1049.09607	253.42377	1424.37329	1239.16406	5.8821	1183.47314	398.95001	223.66945	1402.3573	1690.30847	75.96948	1005.93097	335.62253	179.24185	1267.4248	1602.65784	49.66167	1025.82532	185.48785	219.63547	946.61993	327.81329	115.95305	1246.11353	1490.95605	-18.00631	1266.75708	63.35684	15.07878	1416.00549	1144.96814	-234.96519	1381.97266	1413.73401	-18.33047	1471.89551	1240.19397	-157.46005	1293.66089	1624.16003	-90.01743	1174.27942	1326.16785	58.96742	1544.78003	1240.24292	-131.40131	1173.2915	1221.86548	13.96059	1187.6178	997.44196	-14.56723	1188.47534	1005.42725	96.90615	2845.84717	1034.6438	-3357.448	NaN	NaN	NaN	NaN	NaN	NaN	NaN	NaN	NaN	NaN	NaN	NaN	NaN	NaN	NaN	1300.8999	1766.01733	11.26028	NaN	NaN	NaN	NaN	NaN	NaN	NaN	NaN	NaN	NaN	NaN	NaN	NaN	NaN	NaN
87	0.86	1352.2395	1443.59631	-188.15613	1251.66431	1205.95459	353.43155	1311.0885	87.72751	-33.89589	1459.98242	40.32666	-46.22771	1320.35669	1256.84924	-272.16168	1267.54187	1334.47668	282.31665	1418.33875	1015.46301	311.59439	1475.88306	459.26544	-84.18385	1349.57373	1474.87988	168.46126	1478.47668	1016.59741	279.159	1337.9928	1109.82556	334.97995	1439.44495	932.57324	138.81036	1459.13306	654.78143	-138.68726	1548.38892	1212.43665	-158.36639	1408.96277	643.10724	236.62325	1428.1394	945.79303	-123.0929	1453.24243	1711.71741	-66.82352	1423.01648	447.98187	223.12798	1350.87634	1124.31641	-297.80295	1380.91821	294.29224	-79.9847	1422.47852	1046.82153	263.05661	1461.00757	1241.427	8.56382	1252.81787	396.30829	220.40004	1439.0415	1692.82336	75.99243	1077.29907	322.54266	179.86465	1304.68152	1604.08459	49.74099	1108.82886	174.69162	218.8343	1015.80688	311.32083	118.41016	1281.89502	1492.29333	-18.3232	1267.32214	67.15723	16.75565	1464.14502	1154.91382	-225.75504	1419.80225	1416.21973	-17.46877	1512.00024	1256.07947	-150.44284	1331.01892	1625.49976	-89.67263	1210.42126	1329.20825	56.80347	1583.79858	1260.78027	-122.82331	1210.28894	1224.63245	11.87191	1224.71484	1002.34515	-14.7015	1224.51111	1010.65747	96.45367	2845.97168	1034.73376	-3357.51099	NaN	NaN	NaN	NaN	NaN	NaN	NaN	NaN	NaN	NaN	NaN	NaN	NaN	NaN	NaN	1337.04504	1766.96753	10.88706	NaN	NaN	NaN	NaN	NaN	NaN	NaN	NaN	NaN	NaN	NaN	NaN	NaN	NaN	NaN
88	0.87	1391.75	1448.83777	-187.56851	1271.15112	1212.7356	353.16159	1312.2948	91.13058	-33.01612	1459.39124	40.12432	-46.55496	1367.11804	1260.78894	-271.26422	1295.11658	1340.26355	280.75418	1434.5321	1016.80579	318.866	1492.21033	453.94009	-85.54441	1383.34082	1477.41064	168.37933	1497.14966	1017.18945	290.21576	1354.96814	1113.09033	339.5159	1477.95715	945.07458	139.3143	1484.73999	650.83942	-137.22012	1589.31982	1229.80981	-149.78352	1460.81836	649.96552	231.79613	1465.54333	956.19208	-122.75148	1489.7417	1715.00098	-66.61901	1487.84399	456.04941	215.25081	1402.36328	1128.24634	-293.47256	1389.44006	293.76981	-80.0433	1442.76172	1048.93311	271.20682	1496.75867	1244.55225	9.93548	1321.22009	394.32071	216.38298	1475.70776	1696.75549	76.36919	1149.55042	307.59503	180.41148	1342.06934	1606.56653	50.55223	1194.30359	162.55821	217.52814	1086.84998	291.61533	121.03053	1317.04504	1494.08777	-18.22567	1268.31799	72.93539	18.05358	1510.70996	1165.58826	-218.11852	1457.10791	1418.8064	-16.05993	1550.83215	1271.76367	-144.71509	1368.21948	1627.22656	-89.11189	1246.15137	1332.81213	54.65121	1620.93982	1280.78369	-115.09369	1246.66101	1228.24976	9.88837	1262.09314	1006.63641	-16.20278	1261.14905	1013.95978	95.39967	2845.94897	1034.57678	-3357.18848	NaN	NaN	NaN	NaN	NaN	NaN	NaN	NaN	NaN	NaN	NaN	NaN	NaN	NaN	NaN	1372.17639	1768.84155	10.9306	NaN	NaN	NaN	NaN	NaN	NaN	NaN	NaN	NaN	NaN	NaN	NaN	NaN	NaN	NaN
